<svg xmlns="http://www.w3.org/2000/svg" xmlns:xlink="http://www.w3.org/1999/xlink" width="114" height="43" viewBox="0 0 114 43"><defs><path id="a" d="M1270 3187.19v19.4l18.41 10.29 18.41-10.79v-18.41l-18.41-11.68z"/><path id="b" d="M1297.11 3191.42a9.26 9.26 0 0 0-12.66-3.1 9.12 9.12 0 0 0-3.12 12.57 9.26 9.26 0 0 0 12.66 3.09 9.1 9.1 0 0 0 3.12-12.56z"/><path id="d" d="M1280 3194l7.11 1.74"/><path id="e" d="M1301.49 3188.41v.01c.25.4.19.53-.08.7 0 0-.08.52-.18.68-.1.15-1.83 1.53-2.61 1.56-.78.04-1.75.49-1.75.49a.57.57 0 0 1-.78-.18l-.01-.01a.57.57 0 0 1 .2-.78s.87-.72 1.25-1.31c.42-.67 2.43-1.54 2.61-1.57.17-.02.69.16.69.16.27-.17.39-.19.66.25"/><path id="f" d="M1272 3196.91v8.91l17.04 9.35 17.06-9.83v-9.61s-6.94-2.22-17.26 1.07c-10.32 3.28-16.84.11-16.84.11"/><path id="g" d="M1318.66 3197.7a2.03 2.03 0 0 1-.37-.72c-.09-.3-.16-.59-.19-.89-.03-.3-.04-.65-.04-1.06v-9.88c0-.52.02-.96.08-1.31.05-.35.15-.68.3-.99.15-.31.38-.54.69-.7.32-.15.71-.23 1.19-.23.47 0 .86.08 1.17.23.31.16.54.39.7.7.15.31.25.64.31.99.05.35.08.79.08 1.31v9.88c0 .41-.02.76-.05 1.06-.03.3-.09.59-.19.89-.09.3-.22.54-.38.72-.16.18-.38.33-.65.45a2.7 2.7 0 0 1-.99.17c-.39 0-.72-.06-1-.17-.28-.12-.5-.27-.66-.45zm1.66 3.56c1.14 0 2.12-.17 2.94-.49.82-.32 1.48-.8 1.96-1.44.49-.63.85-1.38 1.07-2.24.23-.86.34-1.86.34-3v-8.02c0-2.32-.49-4.08-1.47-5.27-.98-1.2-2.6-1.8-4.84-1.8-1.16 0-2.14.16-2.96.47-.82.31-1.48.77-1.97 1.39a6.06 6.06 0 0 0-1.06 2.21c-.22.84-.33 1.84-.33 3v8.02c0 2.35.49 4.13 1.47 5.34.97 1.22 2.59 1.83 4.85 1.83z"/><path id="h" d="M1336.24 3201.26a7.9 7.9 0 0 1-2.5-.36 4.88 4.88 0 0 1-1.79-.98 4.8 4.8 0 0 1-1.15-1.56 7.4 7.4 0 0 1-.62-2 14.7 14.7 0 0 1-.18-2.41v-7.58c0-.94.06-1.78.19-2.51.12-.73.33-1.41.62-2.03a4.4 4.4 0 0 1 2.92-2.49 8.28 8.28 0 0 1 2.51-.34c1.09 0 2.02.14 2.8.43.77.29 1.38.72 1.83 1.27.45.56.78 1.22.98 1.97.2.74.31 1.62.31 2.61v1.86h-3.85v-1.84c0-1.09-.06-1.82-.17-2.2-.23-.73-.79-1.12-1.68-1.18h-.21c-.34 0-.63.04-.88.12-.25.08-.45.21-.61.38-.16.17-.29.35-.39.54a2.5 2.5 0 0 0-.21.75 10.9 10.9 0 0 0-.12 1.86v9.21c0 1.27.16 2.18.49 2.72.32.55.89.82 1.72.82a2.25 2.25 0 0 0 1.29-.35c.14-.1.27-.24.37-.43.1-.19.18-.37.23-.53.05-.16.09-.38.12-.67.02-.29.04-.54.04-.74l.01-.82v-1.94h3.85v1.78c0 .81-.06 1.54-.18 2.19a6.91 6.91 0 0 1-.58 1.82 4.42 4.42 0 0 1-1.08 1.42c-.44.37-1.01.67-1.69.88-.69.22-1.49.33-2.39.33"/><path id="i" d="M1345 3201.74V3180h9.17v2.79h-5.18v6.25h4.1v2.79h-4.1v7.17h5.25v2.74H1345"/><path id="j" d="M1362.55 3185.18l1.47 8.93h-2.93zm-6.55 16.56h3.77l.89-5.05h3.8l.88 5.05h3.71l-4.44-21.74h-4.16z"/><path id="k" d="M1371 3201.74V3180h2.75l5.36 12.31V3180h3.31v21.74h-2.62l-5.42-12.94v12.94H1371"/><path id="l" d="M1317.43 3213.9c-1.54 0-2.35-.88-2.43-2.65l1.39-.29c.03 1.15.37 1.72.99 1.72.25 0 .43-.07.54-.22a.89.89 0 0 0 .18-.59c0-.24-.04-.46-.13-.66s-.19-.37-.31-.5a8.07 8.07 0 0 0-.49-.47l-1.16-.99c-.33-.3-.59-.6-.75-.92a2.46 2.46 0 0 1-.25-1.18c0-.68.2-1.2.6-1.58.4-.37.95-.56 1.65-.57.32 0 .6.04.85.12.24.08.45.19.61.33.16.14.29.31.4.52.11.2.19.42.24.64.05.22.09.47.11.74l-1.36.27a4.94 4.94 0 0 0-.12-.85.95.95 0 0 0-.15-.32.56.56 0 0 0-.25-.2.69.69 0 0 0-.36-.06.72.72 0 0 0-.54.23.84.84 0 0 0-.19.57c0 .28.06.51.17.69.11.18.28.38.52.58l1.14.99a4.11 4.11 0 0 1 .9 1.05 2.9 2.9 0 0 1 .39 1.47c0 .63-.2 1.14-.6 1.54-.4.39-.93.59-1.59.59"/><path id="m" d="M1320 3214.7v-8.7h3.67v1.12h-2.07v2.49h1.63v1.12h-1.63v2.87h2.09v1.1H1320"/><path id="n" d="M1326.6 3207.09h.48c.46 0 .77.1.95.3.17.2.26.54.26 1 0 .48-.1.82-.3 1.02-.2.2-.54.3-1.01.3h-.38zm-1.6 7.61h1.6v-3.97h.7l1.05 3.97h1.6l-1.21-4.29c.37-.16.64-.41.81-.75.16-.35.24-.8.24-1.34a3 3 0 0 0-.18-1.11c-.12-.3-.3-.54-.55-.72-.24-.18-.53-.3-.86-.38a5.81 5.81 0 0 0-1.19-.11H1325z"/><path id="o" d="M1331.78 3214.7l-1.78-8.7h1.42l1.15 6.05 1.09-6.05h1.44l-1.78 8.7h-1.54"/><path id="p" d="M1336 3214.7h1.57v-8.7H1336z"/><path id="q" d="M1341.49 3213.9c-.37 0-.71-.05-.99-.14-.29-.1-.53-.23-.72-.39a1.97 1.97 0 0 1-.46-.63c-.12-.25-.2-.51-.25-.8-.05-.28-.07-.6-.07-.96v-3.03c0-.38.02-.71.07-1.01.05-.29.14-.56.25-.81.12-.25.27-.46.46-.62.19-.16.43-.28.71-.37.29-.09.62-.14 1-.14.44 0 .81.06 1.12.17.31.12.56.29.74.51.18.23.31.49.39.79.08.29.12.64.12 1.04v.75h-1.54v-.74c0-.44-.02-.73-.07-.88-.09-.29-.31-.45-.67-.47h-.08c-.13 0-.25.02-.35.05a.58.58 0 0 0-.25.15 1 1 0 0 0-.15.21c-.04.08-.07.18-.09.31l-.04.34v4.08c0 .51.06.87.19 1.09.13.22.36.33.69.33.11 0 .21-.02.3-.04.08-.03.16-.06.21-.1.06-.04.11-.1.15-.18a.95.95 0 0 0 .09-.21.8.8 0 0 0 .05-.27l.02-.29v-1.11h1.54v.72c0 .32-.02.61-.07.87-.04.26-.12.5-.23.73-.11.23-.26.42-.43.57-.18.15-.4.27-.68.35-.27.09-.59.13-.96.13"/><path id="r" d="M1345 3214.7v-8.7h3.67v1.12h-2.07v2.49h1.63v1.12h-1.63v2.87h2.09v1.1H1345"/><path id="s" d="M1354.49 3213.9c-.37 0-.71-.05-.99-.14-.29-.1-.53-.23-.72-.39a1.97 1.97 0 0 1-.46-.63c-.12-.25-.2-.51-.25-.8-.05-.28-.07-.6-.07-.96v-3.03c0-.38.03-.71.07-1.01.05-.29.14-.56.25-.81.12-.25.27-.46.46-.62.19-.16.43-.28.71-.37.29-.09.62-.14 1-.14.44 0 .81.06 1.12.17.31.12.56.29.74.51.18.23.31.49.39.79.08.29.12.64.12 1.04v.75h-1.54v-.74c0-.44-.02-.73-.06-.88-.1-.29-.32-.45-.68-.47h-.08c-.13 0-.25.02-.35.05a.58.58 0 0 0-.25.15 1 1 0 0 0-.15.21c-.04.08-.07.18-.09.31l-.03.34-.01.4v3.68c0 .51.06.87.19 1.09.13.22.36.33.69.33.11 0 .21-.02.3-.04.08-.03.16-.06.21-.1.06-.04.11-.1.15-.18l.1-.21c.02-.06.03-.15.04-.27l.02-.29v-1.11h1.54v.72c0 .32-.02.61-.07.87-.04.26-.12.5-.23.73-.11.23-.26.42-.43.57-.18.15-.4.27-.68.35-.27.09-.59.13-.96.13"/><path id="t" d="M1358 3214.7v-8.7h3.67v1.12h-2.07v2.49h1.63v1.12h-1.63v2.87h2.09v1.1H1358"/><path id="u" d="M1363 3214.7v-8.7h1.1l2.14 4.92V3206h1.33v8.7h-1.05l-2.17-5.18v5.18H1363"/><path id="v" d="M1369.47 3214.7v-7.53H1368V3206h4.49v1.17h-1.43v7.53h-1.59"/><path id="w" d="M1373 3214.7v-8.7h3.67v1.12h-2.07v2.49h1.63v1.12h-1.63v2.87h2.09v1.1H1373"/><path id="x" d="M1379.6 3207.09h.48c.46 0 .78.1.95.3.17.2.26.54.26 1 0 .48-.1.82-.3 1.02-.2.2-.54.3-1.01.3h-.38zm-1.6 7.61h1.6v-3.97h.7l1.05 3.97h1.6l-1.21-4.29c.37-.16.64-.41.81-.75.16-.35.24-.8.24-1.34a3 3 0 0 0-.18-1.11c-.12-.3-.3-.54-.55-.72-.24-.18-.53-.3-.86-.38a5.81 5.81 0 0 0-1.19-.11H1378z"/></defs><g transform="translate(-1269 -3175)"><use fill="#fff" fill-opacity="0" stroke="#fff" stroke-miterlimit="50" stroke-width="1.75" xlink:href="#a"/></g><g transform="translate(-1269 -3175)"><use fill="#fff" fill-opacity="0" stroke="#fff" stroke-miterlimit="50" stroke-width="1.03" xlink:href="#b"/></g><g transform="translate(-1269 -3175)"><use fill="#fff" fill-opacity="0" stroke="#fff" stroke-miterlimit="50" stroke-width="2.06" xlink:href="#c"/></g><g transform="translate(-1269 -3175)"><use fill="#fff" fill-opacity="0" stroke="#fff" stroke-miterlimit="50" stroke-width="2.06" xlink:href="#d"/></g><g transform="translate(-1269 -3175)"><use fill="#fff" fill-opacity="0" stroke="#fff" stroke-miterlimit="50" stroke-width="2.06" xlink:href="#c"/></g><g transform="translate(-1269 -3175)"><use fill="#fff" fill-opacity="0" stroke="#fff" stroke-miterlimit="50" stroke-width="2.06" xlink:href="#c"/></g><g transform="translate(-1269 -3175)"><use fill="#fff" xlink:href="#e"/></g><g transform="translate(-1269 -3175)"><use fill="#fff" xlink:href="#f"/></g><g transform="translate(-1269 -3175)"><use fill="#fff" xlink:href="#g"/></g><g transform="translate(-1269 -3175)"><use fill="#fff" xlink:href="#h"/></g><g transform="translate(-1269 -3175)"><use fill="#fff" xlink:href="#i"/></g><g transform="translate(-1269 -3175)"><use fill="#fff" xlink:href="#j"/></g><g transform="translate(-1269 -3175)"><use fill="#fff" xlink:href="#k"/></g><g transform="translate(-1269 -3175)"><use fill="#fff" xlink:href="#l"/></g><g transform="translate(-1269 -3175)"><use fill="#fff" xlink:href="#m"/></g><g transform="translate(-1269 -3175)"><use fill="#fff" xlink:href="#n"/></g><g transform="translate(-1269 -3175)"><use fill="#fff" xlink:href="#o"/></g><g transform="translate(-1269 -3175)"><use fill="#fff" xlink:href="#p"/></g><g transform="translate(-1269 -3175)"><use fill="#fff" xlink:href="#q"/></g><g transform="translate(-1269 -3175)"><use fill="#fff" xlink:href="#r"/></g><g transform="translate(-1269 -3175)"><use fill="#fff" xlink:href="#s"/></g><g transform="translate(-1269 -3175)"><use fill="#fff" xlink:href="#t"/></g><g transform="translate(-1269 -3175)"><use fill="#fff" xlink:href="#u"/></g><g transform="translate(-1269 -3175)"><use fill="#fff" xlink:href="#v"/></g><g transform="translate(-1269 -3175)"><use fill="#fff" xlink:href="#w"/></g><g transform="translate(-1269 -3175)"><use fill="#fff" xlink:href="#x"/></g></svg>